# xmcd
#
# Track frame offsets:
#       225
#       19592
#       47310
#       69885
#       85907
#       97130
#       123619
#       141905
#       156429
#       173770
#       188428
#       211447
#
# Disc length: 3230 seconds
#
# Revision: 1
# Processed by: cddbd v1.5.1PL0 Copyright (c) Steve Scherf et al.
# Submitted via: MusiCat 1.1
#
DISCID=9e0c9b0c
DTITLE=Tinsley Ellis - The Hard Way
DYEAR=2004
DGENRE=Blues
TTITLE0=Still In The Game
TTITLE1=Let Him Down Easy
TTITLE2=Me Without You
TTITLE3=I'll Get Over You
TTITLE4=And It Hurts
TTITLE5=La La Land
TTITLE6=My Love's The Medicine
TTITLE7=Fountain of Youth
TTITLE8=Love Bomb
TTITLE9=Her Other Man
TTITLE10=12 Pack Poet
TTITLE11=The Last Song
EXTD=\n\n
EXTT0=
EXTT1=
EXTT2=
EXTT3=
EXTT4=
EXTT5=
EXTT6=
EXTT7=
EXTT8=
EXTT9=
EXTT10=
EXTT11=
PLAYORDER=
